<svg xmlns="http://www.w3.org/2000/svg" xmlns:xlink="http://www.w3.org/1999/xlink" width="337" zoomAndPan="magnify" viewBox="0 0 252.75 188.249992" height="251" preserveAspectRatio="xMidYMid meet" version="1.0"><defs><g/><clipPath id="c800d57cfb"><path d="M 34.277344 55 L 52.753906 55 L 52.753906 72.421875 L 34.277344 72.421875 Z M 34.277344 55 " clip-rule="nonzero"/></clipPath><clipPath id="b565d1bf87"><path d="M 45 54.542969 L 47 54.542969 L 47 55 L 45 55 Z M 45 54.542969 " clip-rule="nonzero"/></clipPath><clipPath id="8e2b6514b5"><path d="M 35.671875 76.703125 L 51.488281 76.703125 L 51.488281 122.152344 L 35.671875 122.152344 Z M 35.671875 76.703125 " clip-rule="nonzero"/></clipPath><clipPath id="0833103e68"><path d="M 90.917969 65.566406 L 142 65.566406 L 142 120.394531 L 90.917969 120.394531 Z M 90.917969 65.566406 " clip-rule="nonzero"/></clipPath></defs><g fill="#ffffff" fill-opacity="1"><g transform="translate(53.645146, 121.769783)"><g><path d="M 50.546875 -38.765625 C 50.546875 -35.242188 49.734375 -32.039062 48.109375 -29.15625 C 46.492188 -26.269531 44.050781 -23.957031 40.78125 -22.21875 C 37.507812 -20.488281 33.507812 -19.625 28.78125 -19.625 L 20.78125 -19.625 L 20.78125 0 L 4.625 0 L 4.625 -58.140625 L 28.78125 -58.140625 C 33.457031 -58.140625 37.429688 -57.3125 40.703125 -55.65625 C 43.972656 -54.007812 46.429688 -51.726562 48.078125 -48.8125 C 49.722656 -45.90625 50.546875 -42.554688 50.546875 -38.765625 Z M 27.21875 -32.5 C 31.78125 -32.5 34.0625 -34.585938 34.0625 -38.765625 C 34.0625 -42.992188 31.78125 -45.109375 27.21875 -45.109375 L 20.78125 -45.109375 L 20.78125 -32.5 Z M 27.21875 -32.5 "/></g></g></g><path fill="#ccffce" d="M 43.578125 67.972656 C 41.15625 67.972656 39.195312 66.011719 39.195312 63.59375 C 39.195312 61.171875 41.15625 59.210938 43.578125 59.210938 C 45.996094 59.210938 47.957031 61.171875 47.957031 63.59375 C 47.957031 66.011719 45.996094 67.972656 43.578125 67.972656 Z M 43.578125 58.261719 C 40.632812 58.261719 38.246094 60.648438 38.246094 63.59375 C 38.246094 66.535156 40.632812 68.921875 43.578125 68.921875 C 46.519531 68.921875 48.910156 66.535156 48.910156 63.59375 C 48.910156 60.648438 46.519531 58.261719 43.578125 58.261719 " fill-opacity="1" fill-rule="nonzero"/><path fill="#ccffce" d="M 43.578125 64.5625 C 43.042969 64.5625 42.605469 64.128906 42.605469 63.59375 C 42.605469 63.054688 43.042969 62.621094 43.578125 62.621094 C 44.113281 62.621094 44.546875 63.054688 44.546875 63.59375 C 44.546875 64.128906 44.113281 64.5625 43.578125 64.5625 Z M 48.59375 63.59375 C 48.59375 63.046875 46.578125 62.90625 46.382812 62.429688 C 46.179688 61.9375 47.496094 60.414062 47.125 60.042969 C 46.753906 59.671875 45.230469 60.992188 44.738281 60.789062 C 44.265625 60.589844 44.125 58.574219 43.578125 58.574219 C 43.03125 58.574219 42.890625 60.589844 42.414062 60.789062 C 41.921875 60.992188 40.398438 59.671875 40.027344 60.042969 C 39.660156 60.414062 40.976562 61.9375 40.773438 62.429688 C 40.574219 62.90625 38.558594 63.046875 38.558594 63.59375 C 38.558594 64.136719 40.574219 64.277344 40.773438 64.753906 C 40.976562 65.246094 39.660156 66.769531 40.027344 67.140625 C 40.398438 67.511719 41.921875 66.191406 42.414062 66.398438 C 42.890625 66.59375 43.03125 68.609375 43.578125 68.609375 C 44.125 68.609375 44.265625 66.59375 44.738281 66.398438 C 45.230469 66.191406 46.753906 67.511719 47.125 67.140625 C 47.496094 66.769531 46.179688 65.246094 46.382812 64.753906 C 46.578125 64.277344 48.59375 64.136719 48.59375 63.59375 " fill-opacity="1" fill-rule="nonzero"/><g clip-path="url(#c800d57cfb)"><path fill="#ccffce" d="M 43.578125 69.316406 C 40.414062 69.316406 37.851562 66.753906 37.851562 63.59375 C 37.851562 60.429688 40.414062 57.867188 43.578125 57.867188 C 46.738281 57.867188 49.304688 60.429688 49.304688 63.59375 C 49.304688 66.753906 46.738281 69.316406 43.578125 69.316406 Z M 52.859375 64.03125 C 52.867188 63.886719 52.871094 63.738281 52.871094 63.59375 C 52.871094 63.445312 52.867188 63.296875 52.859375 63.152344 L 52.566406 63.007812 C 52.554688 62.84375 52.539062 62.675781 52.519531 62.511719 L 52.78125 62.320312 C 52.742188 62.027344 52.691406 61.738281 52.621094 61.453125 L 52.308594 61.367188 C 52.265625 61.207031 52.21875 61.046875 52.171875 60.886719 L 52.394531 60.648438 C 52.300781 60.367188 52.195312 60.09375 52.074219 59.828125 L 51.75 59.800781 C 51.679688 59.652344 51.605469 59.5 51.527344 59.355469 L 51.703125 59.078125 C 51.558594 58.820312 51.40625 58.574219 51.238281 58.332031 L 50.914062 58.363281 C 50.816406 58.230469 50.714844 58.097656 50.613281 57.96875 L 50.734375 57.664062 C 50.546875 57.4375 50.347656 57.21875 50.140625 57.011719 L 49.828125 57.105469 C 49.707031 56.992188 49.585938 56.878906 49.457031 56.769531 L 49.523438 56.449219 C 49.296875 56.261719 49.0625 56.085938 48.820312 55.917969 L 48.527344 56.066406 C 48.390625 55.976562 48.25 55.886719 48.105469 55.804688 L 48.109375 55.476562 C 47.855469 55.335938 47.589844 55.203125 47.320312 55.085938 L 47.132812 55.230469 C 49.875 56.6875 51.738281 59.574219 51.738281 62.894531 C 51.738281 65.71875 50.390625 68.226562 48.296875 69.8125 C 49.855469 68.246094 50.816406 66.085938 50.816406 63.699219 C 50.816406 58.910156 46.933594 55.023438 42.140625 55.023438 C 41.472656 55.023438 40.820312 55.097656 40.195312 55.242188 C 40.160156 55.257812 40.125 55.269531 40.089844 55.285156 L 40.074219 55.273438 C 39.722656 55.359375 39.378906 55.464844 39.046875 55.59375 L 39.050781 55.804688 C 38.90625 55.886719 38.765625 55.976562 38.625 56.066406 L 38.335938 55.917969 C 38.089844 56.085938 37.855469 56.261719 37.632812 56.449219 L 37.695312 56.769531 C 37.570312 56.878906 37.449219 56.992188 37.328125 57.105469 L 37.011719 57.011719 C 36.804688 57.21875 36.609375 57.4375 36.421875 57.664062 L 36.542969 57.96875 C 36.4375 58.097656 36.339844 58.230469 36.242188 58.363281 L 35.917969 58.332031 C 35.75 58.574219 35.59375 58.820312 35.453125 59.078125 L 35.628906 59.355469 C 35.550781 59.5 35.476562 59.652344 35.40625 59.800781 L 35.078125 59.828125 C 34.960938 60.09375 34.855469 60.367188 34.761719 60.648438 L 34.984375 60.886719 C 34.933594 61.046875 34.886719 61.207031 34.847656 61.367188 L 34.53125 61.453125 C 34.464844 61.738281 34.410156 62.027344 34.371094 62.320312 L 34.636719 62.511719 C 34.617188 62.675781 34.601562 62.84375 34.589844 63.007812 L 34.292969 63.152344 C 34.289062 63.296875 34.285156 63.445312 34.285156 63.59375 C 34.285156 63.738281 34.289062 63.886719 34.292969 64.03125 L 34.589844 64.175781 C 34.601562 64.34375 34.617188 64.507812 34.636719 64.671875 L 34.371094 64.867188 C 34.410156 65.160156 34.464844 65.445312 34.53125 65.730469 L 34.847656 65.816406 C 34.886719 65.980469 34.933594 66.136719 34.984375 66.296875 L 34.761719 66.535156 C 34.855469 66.816406 34.960938 67.089844 35.078125 67.355469 L 35.40625 67.382812 C 35.476562 67.53125 35.550781 67.683594 35.628906 67.828125 L 35.453125 68.105469 C 35.59375 68.363281 35.75 68.613281 35.914062 68.851562 L 36.242188 68.820312 C 36.335938 68.953125 36.4375 69.085938 36.542969 69.214844 L 36.421875 69.519531 C 36.609375 69.746094 36.804688 69.964844 37.011719 70.171875 L 37.289062 70.089844 C 36.097656 68.601562 35.382812 66.71875 35.382812 64.664062 C 35.382812 61.839844 36.734375 59.328125 38.824219 57.746094 C 37.265625 59.3125 36.304688 61.472656 36.304688 63.855469 C 36.304688 68.644531 40.183594 72.527344 44.96875 72.535156 L 44.988281 72.488281 C 45.152344 72.460938 45.316406 72.433594 45.476562 72.398438 L 45.582031 72.511719 C 45.90625 72.492188 46.226562 72.449219 46.542969 72.394531 L 46.597656 72.078125 C 46.753906 72.023438 46.910156 71.964844 47.0625 71.898438 L 47.320312 72.097656 C 47.589844 71.980469 47.855469 71.847656 48.109375 71.707031 L 48.105469 71.378906 C 48.25 71.296875 48.390625 71.207031 48.527344 71.117188 L 48.820312 71.265625 C 49.0625 71.097656 49.296875 70.921875 49.523438 70.734375 L 49.457031 70.414062 C 49.585938 70.304688 49.707031 70.191406 49.828125 70.078125 L 50.140625 70.171875 C 50.347656 69.964844 50.546875 69.746094 50.734375 69.519531 L 50.613281 69.214844 C 50.714844 69.085938 50.816406 68.953125 50.914062 68.820312 L 51.238281 68.851562 C 51.402344 68.613281 51.558594 68.363281 51.703125 68.105469 L 51.527344 67.828125 C 51.605469 67.683594 51.679688 67.535156 51.75 67.382812 L 52.074219 67.355469 C 52.195312 67.089844 52.300781 66.816406 52.394531 66.535156 L 52.171875 66.296875 C 52.21875 66.136719 52.265625 65.980469 52.308594 65.816406 L 52.621094 65.730469 C 52.691406 65.445312 52.742188 65.160156 52.78125 64.867188 L 52.519531 64.671875 C 52.539062 64.507812 52.554688 64.34375 52.566406 64.175781 L 52.859375 64.03125 " fill-opacity="1" fill-rule="nonzero"/></g><g clip-path="url(#b565d1bf87)"><path fill="#ccffce" d="M 46.570312 54.957031 L 46.542969 54.78125 C 46.265625 54.6875 45.984375 54.609375 45.695312 54.542969 L 45.636719 54.605469 C 45.957031 54.703125 46.269531 54.824219 46.570312 54.957031 " fill-opacity="1" fill-rule="nonzero"/></g><path fill="#ccffce" d="M 37.671875 70.535156 L 37.632812 70.734375 C 37.855469 70.921875 38.089844 71.097656 38.335938 71.265625 L 38.394531 71.234375 C 38.140625 71.015625 37.898438 70.78125 37.671875 70.535156 " fill-opacity="1" fill-rule="nonzero"/><g clip-path="url(#8e2b6514b5)"><path fill="#ffffff" d="M 35.671875 76.703125 L 51.488281 76.703125 L 51.488281 122.167969 L 35.671875 122.167969 Z M 35.671875 76.703125 " fill-opacity="1" fill-rule="nonzero"/></g><g fill="#ffffff" fill-opacity="1"><g transform="translate(140.747752, 120.8937)"><g><path d="M 2.640625 -29.1875 C 2.640625 -34.90625 3.832031 -40.003906 6.21875 -44.484375 C 8.613281 -48.972656 12.007812 -52.46875 16.40625 -54.96875 C 20.8125 -57.46875 25.867188 -58.71875 31.578125 -58.71875 C 38.835938 -58.71875 44.941406 -56.78125 49.890625 -52.90625 C 54.835938 -49.03125 58.023438 -43.765625 59.453125 -37.109375 L 42.0625 -37.109375 C 41.007812 -39.304688 39.5625 -40.984375 37.71875 -42.140625 C 35.882812 -43.296875 33.757812 -43.875 31.34375 -43.875 C 27.601562 -43.875 24.617188 -42.539062 22.390625 -39.875 C 20.160156 -37.207031 19.046875 -33.644531 19.046875 -29.1875 C 19.046875 -24.6875 20.160156 -21.101562 22.390625 -18.4375 C 24.617188 -15.769531 27.601562 -14.4375 31.34375 -14.4375 C 33.757812 -14.4375 35.882812 -15.007812 37.71875 -16.15625 C 39.5625 -17.3125 41.007812 -18.988281 42.0625 -21.1875 L 59.453125 -21.1875 C 58.023438 -14.539062 54.835938 -9.28125 49.890625 -5.40625 C 44.941406 -1.53125 38.835938 0.40625 31.578125 0.40625 C 25.867188 0.40625 20.8125 -0.84375 16.40625 -3.34375 C 12.007812 -5.84375 8.613281 -9.332031 6.21875 -13.8125 C 3.832031 -18.289062 2.640625 -23.414062 2.640625 -29.1875 Z M 2.640625 -29.1875 "/></g></g></g><g fill="#ffffff" fill-opacity="1"><g transform="translate(69.052062, 138.634015)"><g><path d="M 6.75 -2.140625 L 2.546875 -2.140625 L 1.78125 0 L 0.453125 0 L 3.9375 -9.5625 L 5.375 -9.5625 L 8.84375 0 L 7.515625 0 Z M 6.390625 -3.15625 L 4.65625 -8.015625 L 2.90625 -3.15625 Z M 6.390625 -3.15625 "/></g></g></g><g fill="#ffffff" fill-opacity="1"><g transform="translate(89.389256, 138.634015)"><g><path d="M 2.296875 -9.609375 L 2.296875 -3.53125 C 2.296875 -2.675781 2.503906 -2.039062 2.921875 -1.625 C 3.335938 -1.207031 3.914062 -1 4.65625 -1 C 5.394531 -1 5.972656 -1.207031 6.390625 -1.625 C 6.804688 -2.039062 7.015625 -2.675781 7.015625 -3.53125 L 7.015625 -9.609375 L 8.28125 -9.609375 L 8.28125 -3.546875 C 8.28125 -2.742188 8.117188 -2.066406 7.796875 -1.515625 C 7.472656 -0.972656 7.035156 -0.566406 6.484375 -0.296875 C 5.941406 -0.0351562 5.332031 0.09375 4.65625 0.09375 C 3.96875 0.09375 3.347656 -0.0351562 2.796875 -0.296875 C 2.253906 -0.566406 1.820312 -0.972656 1.5 -1.515625 C 1.1875 -2.066406 1.03125 -2.742188 1.03125 -3.546875 L 1.03125 -9.609375 Z M 2.296875 -9.609375 "/></g></g></g><g fill="#ffffff" fill-opacity="1"><g transform="translate(109.74024, 138.634015)"><g><path d="M 6.984375 -9.609375 L 6.984375 -8.59375 L 4.359375 -8.59375 L 4.359375 0 L 3.109375 0 L 3.109375 -8.59375 L 0.46875 -8.59375 L 0.46875 -9.609375 Z M 6.984375 -9.609375 "/></g></g></g><g fill="#ffffff" fill-opacity="1"><g transform="translate(128.243199, 138.634015)"><g><path d="M 5.421875 0.09375 C 4.523438 0.09375 3.707031 -0.113281 2.96875 -0.53125 C 2.238281 -0.945312 1.660156 -1.53125 1.234375 -2.28125 C 0.804688 -3.03125 0.59375 -3.875 0.59375 -4.8125 C 0.59375 -5.75 0.804688 -6.59375 1.234375 -7.34375 C 1.660156 -8.09375 2.238281 -8.675781 2.96875 -9.09375 C 3.707031 -9.519531 4.523438 -9.734375 5.421875 -9.734375 C 6.328125 -9.734375 7.144531 -9.519531 7.875 -9.09375 C 8.613281 -8.675781 9.191406 -8.09375 9.609375 -7.34375 C 10.035156 -6.601562 10.25 -5.757812 10.25 -4.8125 C 10.25 -3.863281 10.035156 -3.015625 9.609375 -2.265625 C 9.191406 -1.523438 8.613281 -0.945312 7.875 -0.53125 C 7.144531 -0.113281 6.328125 0.09375 5.421875 0.09375 Z M 5.421875 -1 C 6.085938 -1 6.691406 -1.15625 7.234375 -1.46875 C 7.773438 -1.78125 8.195312 -2.222656 8.5 -2.796875 C 8.8125 -3.378906 8.96875 -4.050781 8.96875 -4.8125 C 8.96875 -5.582031 8.8125 -6.253906 8.5 -6.828125 C 8.195312 -7.410156 7.773438 -7.859375 7.234375 -8.171875 C 6.703125 -8.484375 6.097656 -8.640625 5.421875 -8.640625 C 4.742188 -8.640625 4.132812 -8.484375 3.59375 -8.171875 C 3.0625 -7.859375 2.640625 -7.410156 2.328125 -6.828125 C 2.023438 -6.253906 1.875 -5.582031 1.875 -4.8125 C 1.875 -4.050781 2.023438 -3.378906 2.328125 -2.796875 C 2.640625 -2.222656 3.066406 -1.78125 3.609375 -1.46875 C 4.148438 -1.15625 4.753906 -1 5.421875 -1 Z M 5.421875 -1 "/></g></g></g><g fill="#ffffff" fill-opacity="1"><g transform="translate(150.125013, 138.634015)"><g><path d="M 4.109375 0.09375 C 3.472656 0.09375 2.90625 -0.015625 2.40625 -0.234375 C 1.90625 -0.460938 1.507812 -0.773438 1.21875 -1.171875 C 0.9375 -1.578125 0.789062 -2.039062 0.78125 -2.5625 L 2.125 -2.5625 C 2.164062 -2.113281 2.347656 -1.734375 2.671875 -1.421875 C 3.003906 -1.117188 3.484375 -0.96875 4.109375 -0.96875 C 4.710938 -0.96875 5.1875 -1.113281 5.53125 -1.40625 C 5.875 -1.707031 6.046875 -2.09375 6.046875 -2.5625 C 6.046875 -2.9375 5.941406 -3.238281 5.734375 -3.46875 C 5.535156 -3.695312 5.285156 -3.867188 4.984375 -3.984375 C 4.679688 -4.109375 4.269531 -4.238281 3.75 -4.375 C 3.113281 -4.539062 2.601562 -4.707031 2.21875 -4.875 C 1.84375 -5.039062 1.519531 -5.300781 1.25 -5.65625 C 0.976562 -6.007812 0.84375 -6.484375 0.84375 -7.078125 C 0.84375 -7.597656 0.972656 -8.0625 1.234375 -8.46875 C 1.503906 -8.875 1.878906 -9.1875 2.359375 -9.40625 C 2.847656 -9.625 3.40625 -9.734375 4.03125 -9.734375 C 4.925781 -9.734375 5.660156 -9.507812 6.234375 -9.0625 C 6.816406 -8.613281 7.144531 -8.015625 7.21875 -7.265625 L 5.84375 -7.265625 C 5.789062 -7.640625 5.59375 -7.96875 5.25 -8.25 C 4.914062 -8.53125 4.46875 -8.671875 3.90625 -8.671875 C 3.382812 -8.671875 2.957031 -8.53125 2.625 -8.25 C 2.289062 -7.976562 2.125 -7.601562 2.125 -7.125 C 2.125 -6.769531 2.222656 -6.484375 2.421875 -6.265625 C 2.617188 -6.046875 2.863281 -5.878906 3.15625 -5.765625 C 3.445312 -5.648438 3.851562 -5.515625 4.375 -5.359375 C 5.007812 -5.191406 5.519531 -5.019531 5.90625 -4.84375 C 6.289062 -4.675781 6.617188 -4.414062 6.890625 -4.0625 C 7.171875 -3.707031 7.3125 -3.226562 7.3125 -2.625 C 7.3125 -2.15625 7.1875 -1.710938 6.9375 -1.296875 C 6.6875 -0.878906 6.316406 -0.539062 5.828125 -0.28125 C 5.347656 -0.03125 4.773438 0.09375 4.109375 0.09375 Z M 4.109375 0.09375 "/></g></g></g><g clip-path="url(#0833103e68)"><path fill="#ccffce" d="M 126.25 72.4375 C 126.148438 72.667969 126.039062 72.882812 125.925781 73.074219 C 121.425781 80.972656 116.871094 88.84375 112.328125 96.71875 L 112.34375 96.730469 C 111.949219 97.402344 110.558594 99.761719 108.816406 102.730469 L 116.480469 102.730469 C 117.246094 101.410156 118.074219 99.980469 118.972656 98.433594 L 118.898438 98.433594 C 121.277344 94.359375 123.648438 90.265625 126.0625 86.085938 L 127.019531 84.433594 C 127.980469 82.769531 128.949219 81.09375 129.929688 79.398438 C 130.972656 81.371094 132.023438 83.34375 133.070312 85.316406 C 136 90.835938 138.941406 96.347656 141.914062 101.847656 L 134.429688 101.847656 L 129.714844 93.023438 C 116.765625 115.371094 115.753906 117.175781 114.757812 118.984375 C 114.421875 119.59375 114.074219 120.128906 113.699219 120.582031 L 106.164062 120.582031 C 107.125 118.90625 108.046875 117.292969 112.964844 108.804688 L 105.273438 108.804688 C 102.410156 113.726562 99.675781 118.488281 99.1875 119.539062 C 99.007812 119.925781 98.816406 120.273438 98.605469 120.582031 L 90.917969 120.582031 C 92.34375 118.113281 105.433594 95.414062 106.851562 92.960938 L 106.859375 92.96875 C 112.113281 83.867188 117.363281 74.773438 122.667969 65.589844 C 123.855469 67.875 125.050781 70.160156 126.25 72.4375 Z M 126.25 72.4375 " fill-opacity="1" fill-rule="nonzero"/></g></svg>